HIERARCHY
ROOT Hips
{
 OFFSET 0.000000 0.000000 0.000000
 CHANNELS 6 Xposition Yposition Zposition Yrotation Xrotation Zrotation
 JOINT Chest
 {
  OFFSET 0.000000 9.588913 -0.003946
  CHANNELS 3 Yrotation Xrotation Zrotation
  JOINT Chest2
  {
   OFFSET 0.000000 9.541882 0.008053
   CHANNELS 3 Yrotation Xrotation Zrotation
   JOINT Chest3
   {
    OFFSET 0.000000 9.501360 0.000000
    CHANNELS 3 Yrotation Xrotation Zrotation
    JOINT Chest4
    {
     OFFSET 0.000000 9.491660 0.000000
     CHANNELS 3 Yrotation Xrotation Zrotation
     JOINT Neck
     {
      OFFSET 0.000000 14.331917 0.000000
      CHANNELS 3 Yrotation Xrotation Zrotation
      JOINT Head
      {
       OFFSET 0.000000 8.884799 0.017034
       CHANNELS 3 Yrotation Xrotation Zrotation
       End Site
       {
        OFFSET 0.000000 16.896195 0.008993
       }
      }
     }
     JOINT RightCollar
     {
      OFFSET -2.923010 9.499495 0.000000
      CHANNELS 3 Yrotation Xrotation Zrotation
      JOINT RightShoulder
      {
       OFFSET -13.795216 0.000000 0.000000
       CHANNELS 3 Yrotation Xrotation Zrotation
       JOINT RightElbow
       {
        OFFSET -30.272209 0.000000 0.000000
        CHANNELS 3 Yrotation Xrotation Zrotation
        JOINT RightWrist
        {
         OFFSET -24.478199 0.000000 0.000000
         CHANNELS 3 Yrotation Xrotation Zrotation
         End Site
         {
          OFFSET -18.090752 0.000000 0.000000
         }
        }
       }
      }
     }
     JOINT LeftCollar
     {
      OFFSET 2.923010 9.499495 0.000000
      CHANNELS 3 Yrotation Xrotation Zrotation
      JOINT LeftShoulder
      {
       OFFSET 13.795216 0.000000 0.000000
       CHANNELS 3 Yrotation Xrotation Zrotation
       JOINT LeftElbow
       {
        OFFSET 30.272209 0.000000 0.000000
        CHANNELS 3 Yrotation Xrotation Zrotation
        JOINT LeftWrist
        {
         OFFSET 24.478199 0.000000 0.000000
         CHANNELS 3 Yrotation Xrotation Zrotation
         End Site
         {
          OFFSET 18.090752 0.000000 0.000000
         }
        }
       }
      }
     }
    }
   }
  }
 }
 JOINT RightHip
 {
  OFFSET -7.826875 0.019532 0.001973
  CHANNELS 3 Yrotation Xrotation Zrotation
  JOINT RightKnee
  {
   OFFSET 0.000000 -40.546152 -0.001885
   CHANNELS 3 Yrotation Xrotation Zrotation
   JOINT RightAnkle
   {
    OFFSET 0.000000 -39.417092 -0.003189
    CHANNELS 3 Yrotation Xrotation Zrotation
    JOINT RightToe
    {
     OFFSET 0.000000 -7.579396 17.243563
     CHANNELS 3 Yrotation Xrotation Zrotation
     End Site
     {
      OFFSET 0.000000 -1.500329 6.694466
     }
    }
   }
  }
 }
 JOINT LeftHip
 {
  OFFSET 7.826875 0.019532 0.001973
  CHANNELS 3 Yrotation Xrotation Zrotation
  JOINT LeftKnee
  {
   OFFSET 0.000000 -40.546152 -0.001885
   CHANNELS 3 Yrotation Xrotation Zrotation
   JOINT LeftAnkle
   {
    OFFSET 0.000000 -39.417092 -0.003189
    CHANNELS 3 Yrotation Xrotation Zrotation
    JOINT LeftToe
    {
     OFFSET 0.000000 -7.579396 17.243563
     CHANNELS 3 Yrotation Xrotation Zrotation
     End Site
     {
      OFFSET 0.000000 -1.500329 6.694466
     }
    }
   }
  }
 }
}
MOTION
Frames: 13
Frame Time: 0.008333
6.430980 35.122019 3.092936 47.909193 -3.639668 0.687594 0.602454 11.357008 4.242657 0.122174 6.416641 2.199867 0.191812 8.019694 2.756335 0.122174 6.416641 2.199867 -6.515397 12.182726 -6.572415 -5.609856 -12.779657 -5.686247 12.361162 -0.863952 -5.878491 17.448033 -51.475660 55.014705 85.850520 -21.792037 16.833267 7.002993 -11.268100 -17.524145 -8.026307 -3.598825 -3.219003 0.710708 -24.706729 -79.241923 -43.081471 -15.931871 -34.425615 -3.329430 -9.319661 13.029495 17.258934 -80.680273 -35.660826 162.364131 30.862465 176.960778 10.907689 -35.054093 -3.119007 4.672064 -24.204927 -21.413562 75.796289 -74.494274 -75.256721 166.315180 28.877944 172.457009 0.124634 -32.234586 -1.091714 -1.892460 -29.319637 6.019499
6.419097 35.087458 3.099037 47.921973 -3.650311 0.687952 0.597819 11.346365 4.239948 0.121438 6.414900 2.198749 0.190860 8.017524 2.754919 0.121438 6.414900 2.198749 -6.507399 12.188696 -6.570210 -5.601129 -12.773401 -5.685274 12.374636 -0.848372 -5.872880 17.452618 -51.493889 55.017061 85.850993 -21.780653 16.823136 7.014770 -11.268286 -17.530087 -8.017350 -3.595014 -3.227048 0.689141 -24.716514 -79.233573 -43.084841 -15.950462 -34.429381 -3.322102 -9.314350 13.018781 17.276109 -80.712830 -35.678521 162.369274 30.819297 176.980516 10.901008 -35.062654 -3.119721 4.671401 -24.200867 -21.432253 75.933065 -74.497849 -75.416601 166.303442 28.832715 172.464711 0.118949 -32.243049 -1.082194 -1.876792 -29.303552 5.999249
6.406892 35.054345 3.105244 47.935776 -3.662215 0.687751 0.595724 11.337902 4.238930 0.120868 6.413732 2.197063 0.190110 8.016068 2.752796 0.120868 6.413732 2.197063 -6.499161 12.192445 -6.567888 -5.592205 -12.769538 -5.684269 12.384952 -0.835675 -5.865260 17.462488 -51.510788 55.014310 85.850225 -21.772971 16.810821 7.026625 -11.269092 -17.536705 -8.012577 -3.593802 -3.231876 0.666515 -24.723960 -79.226606 -43.097352 -15.966380 -34.426866 -3.321671 -9.312043 13.017478 17.306163 -80.748514 -35.711392 162.367807 30.777471 176.995851 10.892101 -35.056961 -3.122948 4.671959 -24.202025 -21.451288 76.070031 -74.505685 -75.582611 166.296676 28.788982 172.474856 0.117847 -32.243665 -1.074193 -1.862013 -29.290187 5.977540
6.394641 35.022841 3.111472 47.943978 -3.675932 0.688260 0.596190 11.331241 4.238152 0.122546 6.413410 2.194532 0.192164 8.015657 2.749656 0.122546 6.413410 2.194532 -6.492162 12.194754 -6.563519 -5.585143 -12.767236 -5.680723 12.392366 -0.823581 -5.856113 17.471286 -51.528573 55.010865 85.848660 -21.769097 16.800013 7.036709 -11.272219 -17.544940 -8.011086 -3.594854 -3.234171 0.637330 -24.731529 -79.218075 -43.114788 -15.983544 -34.416506 -3.322722 -9.307851 13.020464 17.336322 -80.787194 -35.739674 162.362754 30.737888 177.008748 10.877281 -35.040406 -3.131768 4.672580 -24.207193 -21.465507 76.213653 -74.514872 -75.750980 166.294230 28.746758 172.485164 0.124306 -32.233705 -1.067407 -1.849692 -29.283555 5.954562
6.382312 34.993104 3.118390 47.940956 -3.693376 0.685819 0.604112 11.327725 4.239631 0.127268 6.413876 2.191814 0.198030 8.016213 2.746338 0.127268 6.413876 2.191814 -6.486270 12.196652 -6.555962 -5.580006 -12.765408 -5.673348 12.394715 -0.813857 -5.844919 17.481314 -51.545020 55.006312 85.846508 -21.769935 16.789561 7.043818 -11.276463 -17.553478 -8.013930 -3.597513 -3.235186 0.603612 -24.741878 -79.206543 -43.132090 -16.002802 -34.403224 -3.325718 -9.301979 13.026203 17.327516 -80.828111 -35.717896 162.356743 30.701877 177.021839 10.852027 -35.014040 -3.144255 4.672227 -24.217995 -21.473225 76.346911 -74.525838 -75.896857 166.292548 28.704343 172.494121 0.139378 -32.219802 -1.065131 -1.839577 -29.283145 5.930720
6.369989 34.965245 3.126217 47.929177 -3.715104 0.678507 0.620589 11.328832 4.244311 0.132934 6.414876 2.189546 0.205090 8.017431 2.743600 0.132934 6.414876 2.189546 -6.479158 12.198149 -6.545490 -5.574104 -12.764077 -5.662938 12.392718 -0.811289 -5.832232 17.496492 -51.555720 54.999193 85.842376 -21.775298 16.778419 7.053189 -11.280246 -17.565488 -8.017564 -3.603051 -3.236091 0.576788 -24.755045 -79.194902 -43.144941 -16.020201 -34.397394 -3.331050 -9.300752 13.035479 17.264250 -80.870859 -35.632186 162.350368 30.669100 177.036176 10.809936 -34.977494 -3.151400 4.670267 -24.238738 -21.476985 76.454019 -74.536923 -76.007040 166.286882 28.660961 172.501870 0.158387 -32.209439 -1.066117 -1.829492 -29.285246 5.905192
6.357851 34.939275 3.134037 47.914772 -3.737574 0.669538 0.640603 11.332811 4.250157 0.138000 6.415476 2.187736 0.211404 8.018151 2.741424 0.138000 6.415476 2.187736 -6.470652 12.199692 -6.533527 -5.566935 -12.762742 -5.651130 12.388798 -0.814475 -5.821164 17.509477 -51.562038 54.995776 85.835290 -21.781381 16.769620 7.066286 -11.281113 -17.581049 -8.017635 -3.610895 -3.239594 0.559576 -24.770981 -79.186729 -43.149654 -16.032517 -34.400532 -3.336358 -9.305828 13.045395 17.172633 -80.915167 -35.516095 162.344883 30.638992 177.051196 10.756936 -34.934673 -3.152996 4.666219 -24.267072 -21.478289 76.547137 -74.545455 -76.099662 166.276770 28.618267 172.507596 0.177682 -32.202343 -1.065303 -1.818406 -29.287831 5.876630
6.346159 34.915160 3.141586 47.900475 -3.760359 0.659929 0.660427 11.338143 4.256531 0.142842 6.415191 2.185909 0.217432 8.017768 2.739221 0.142842 6.415191 2.185909 -6.460710 12.202244 -6.521340 -5.558170 -12.760348 -5.639347 12.386768 -0.817749 -5.811544 17.510370 -51.567944 55.001673 85.825819 -21.781965 16.766061 7.078865 -11.277631 -17.596327 -8.017846 -3.615604 -3.243022 0.546593 -24.791422 -79.183962 -43.146051 -16.043252 -34.405974 -3.343230 -9.308348 13.051365 17.049748 -80.955897 -35.372615 162.341112 30.612034 177.065615 10.709126 -34.892654 -3.162090 4.661508 -24.294815 -21.476267 76.628447 -74.552084 -76.178589 166.263077 28.576810 172.510291 0.195037 -32.196986 -1.059929 -1.807474 -29.290891 5.845177
6.335097 34.892811 3.149220 47.884202 -3.785343 0.648277 0.681206 11.344457 4.264902 0.147848 6.415118 2.183747 0.223660 8.017648 2.736604 0.147848 6.415118 2.183747 -6.448628 12.204913 -6.509150 -5.546985 -12.757862 -5.628007 12.388188 -0.818685 -5.802414 17.504134 -51.576055 55.010569 85.815314 -21.776252 16.763977 7.087039 -11.271512 -17.607297 -8.021378 -3.616826 -3.243248 0.539507 -24.814580 -79.187629 -43.138061 -16.052628 -34.412269 -3.353335 -9.307259 13.055752 16.888150 -80.988543 -35.192806 162.335720 30.588636 177.078410 10.669339 -34.854794 -3.181675 4.656943 -24.318765 -21.471534 76.686774 -74.558380 -76.232326 166.244863 28.535657 172.510042 0.211737 -32.195317 -1.056450 -1.798170 -29.294010 5.814058
6.324557 34.872033 3.156545 47.865552 -3.810416 0.635634 0.701829 11.351987 4.274776 0.153058 6.415821 2.181618 0.230149 8.018497 2.734031 0.153058 6.415821 2.181618 -6.435420 12.205862 -6.497825 -5.534389 -12.757226 -5.617920 12.393306 -0.819031 -5.796596 17.501711 -51.584207 55.013924 85.807461 -21.769262 16.755286 7.089328 -11.267568 -17.610192 -8.027530 -3.620753 -3.243215 0.543381 -24.835774 -79.196293 -43.130836 -16.060039 -34.419306 -3.362126 -9.309009 13.060990 16.716649 -81.013523 -35.004161 162.322608 30.568378 177.087266 10.635833 -34.822869 -3.212287 4.653830 -24.335982 -21.464347 76.728765 -74.564357 -76.270222 166.224348 28.495815 172.508666 0.230593 -32.198076 -1.059021 -1.791991 -29.295279 5.785993
6.314558 34.852575 3.162544 47.849846 -3.831782 0.626391 0.716822 11.359092 4.281130 0.158036 6.416511 2.179513 0.236348 8.019331 2.731485 0.158036 6.416511 2.179513 -6.421267 12.205265 -6.487411 -5.520574 -12.758250 -5.609099 12.402314 -0.819045 -5.794009 17.506954 -51.589122 55.010873 85.803507 -21.765369 16.740231 7.088456 -11.267338 -17.608716 -8.033631 -3.628113 -3.243855 0.551648 -24.852720 -79.205918 -43.128000 -16.069715 -34.423860 -3.366167 -9.312515 13.066441 16.563558 -81.033463 -34.840275 162.302297 30.549802 177.091486 10.607843 -34.800847 -3.253726 4.652723 -24.343984 -21.454097 76.772200 -74.568105 -76.315372 166.205002 28.460321 172.507508 0.249062 -32.202231 -1.064589 -1.787547 -29.293066 5.761793
6.304419 34.834370 3.172748 47.812431 -3.868678 0.595533 0.758169 11.383174 4.312238 0.161875 6.416914 2.176831 0.241110 8.019815 2.728196 0.161875 6.416914 2.176831 -6.406187 12.203955 -6.476415 -5.505852 -12.760061 -5.599831 12.413777 -0.817956 -5.791978 17.519005 -51.592208 55.002830 85.800163 -21.764762 16.725840 7.087968 -11.269200 -17.607459 -8.035482 -3.635365 -3.243087 0.552157 -24.866175 -79.213655 -43.128589 -16.085026 -34.423635 -3.367813 -9.313854 13.072376 16.246073 -81.039751 -34.490988 162.282627 30.532290 177.094533 10.594164 -34.780190 -3.297835 4.642448 -24.354272 -21.448617 76.759379 -74.592478 -76.280682 166.187523 28.428780 172.507280 0.289571 -32.192569 -1.074056 -1.799382 -29.300605 5.729722
6.295258 34.816859 3.176699 47.799337 -3.884894 0.591544 0.769141 11.386433 4.315371 0.164433 6.417538 2.173627 0.244259 8.020582 2.724231 0.164433 6.417538 2.173627 -6.391252 12.201824 -6.464718 -5.491463 -12.762760 -5.589761 12.426059 -0.815236 -5.790450 17.534551 -51.597180 54.990526 85.794497 -21.764605 16.716562 7.089271 -11.271792 -17.602919 -8.033017 -3.641685 -3.242007 0.544622 -24.878117 -79.218488 -43.129297 -16.105014 -34.419293 -3.368062 -9.313377 13.077500 16.095939 -81.055416 -34.338709 162.270612 30.516604 177.098842 10.576409 -34.775918 -3.336649 4.637588 -24.351793 -21.439390 76.822428 -74.596166 -76.349765 166.171153 28.397835 172.508375 0.296434 -32.190310 -1.075927 -1.793812 -29.298522 5.710545
